<svg width="81" height="45" viewBox="0 0 81 45" fill="none" xmlns="http://www.w3.org/2000/svg">
<path d="M40.2438 1.56927C36.8799 0.536431 33.3031 0.409384 29.8745 1.20095L24.7783 2.3775C20.0404 3.47132 15.9119 6.36091 13.262 10.4378L11.1129 13.7442C9.84163 15.7001 7.86098 17.0864 5.58802 17.6111C1.65511 18.5191 -0.65533 22.8985 0.39602 27.4523L2.21578 35.3346C2.78007 37.7788 5.21891 39.3027 7.66309 38.7385C9.60329 38.2905 11.5517 39.2236 12.9426 40.6486C15.6513 43.4236 19.3295 44.6876 22.8477 43.8754C23.7163 43.6748 24.5382 43.3563 25.3016 42.9348C31.3239 39.61 35.5305 32.3048 42.2333 30.7573C48.8992 29.2184 55.8203 33.8686 62.6489 34.2843C63.5523 34.3393 64.4642 34.2674 65.3656 34.0593C68.8728 33.2497 71.6183 30.5158 72.8254 26.8555C73.4535 24.9508 74.7999 23.2387 76.7541 22.7875L77.0845 22.7113C79.3503 22.1882 80.7631 19.9273 80.2399 17.6615C79.1886 13.1076 75.1982 12.4732 71.2593 11.0923L40.2438 1.56927ZM24.2135 17.6324C20.5869 18.4696 17.7372 14.5347 19.6638 11.3502C20.2528 10.3768 21.2106 9.68308 22.3192 9.42715L33.6558 6.80988C34.3777 6.64323 35.1307 6.66998 35.8389 6.88742C39.9544 8.15104 39.7449 14.0467 35.5502 15.0151L24.2135 17.6324ZM18.5854 25.4136C19.995 25.0882 21.4965 25.4245 22.7596 26.3485C24.0228 27.2724 24.9441 28.7084 25.3209 30.3405C25.6977 31.9727 25.4991 33.6672 24.7689 35.0514C24.0386 36.4356 22.8365 37.396 21.4269 37.7215C20.0174 38.0469 18.5158 37.7106 17.2527 36.7866C15.9895 35.8627 15.0682 34.4267 14.6914 32.7946C14.3146 31.1624 14.5132 29.4679 15.2435 28.0837C15.9737 26.6995 17.1759 25.7391 18.5854 25.4136ZM61.1034 15.5976C62.5129 15.2722 64.0145 15.6084 65.2776 16.5324C66.5408 17.4564 67.4621 18.8924 67.8389 20.5245C68.2157 22.1566 68.0171 23.8512 67.2868 25.2354C66.5566 26.6195 65.3544 27.58 63.9449 27.9054C62.5353 28.2308 61.0338 27.8946 59.7707 26.9706C58.5075 26.0466 57.5862 24.6106 57.2094 22.9785C56.8326 21.3464 57.0312 19.6518 57.7614 18.2677C58.4917 16.8835 59.6938 15.923 61.1034 15.5976Z" fill="white" fill-opacity="0.8"/>
</svg>
