<svg width="224" height="57" viewBox="0 0 224 57" fill="none" xmlns="http://www.w3.org/2000/svg">
<path d="M17.7168 19.4423C24.1635 18.8664 30.352 11.7684 24.7621 7.02455C15.5634 -0.781847 11.0583 14.7394 9.29583 19.0177C6.93863 24.7398 4.20185 30.3465 3.08432 36.353C2.22401 40.9769 -1.16514 49.3814 3.126 53.3698C7.24779 57.2009 18.3755 52.4553 22.2191 50.0089M55.9864 36.6361C56.2372 36.045 59.595 27.8621 55.5695 30.6572C51.9338 33.1816 51.11 39.2339 50.1501 42.8626C49.1327 46.7088 47.0131 50.0864 44.7307 53.476C43.8203 54.828 40.4552 52.9709 39.478 52.5562M58.988 32.1784C58.988 29.5944 59.1704 34.9926 58.988 35.9992C58.4375 39.0357 57.0406 42.1588 56.7785 45.1621C56.5824 47.4086 56.0887 49.5211 55.9864 51.7778C55.9211 53.2202 54.4857 54.2339 54.4857 55.7402M67.9926 32.8151C66.0146 30.9266 66.5142 34.9528 66.4919 36.5651C66.4493 39.6346 66.292 42.8099 65.7489 45.881M65.7489 45.881C65.6382 46.5071 65.5114 47.1289 65.3663 47.7446C64.8649 49.8722 66.0486 55.7177 64.2407 54.1834C63.1582 53.2648 64.518 48.2826 64.9911 47.1786C65.1902 46.714 65.4467 46.284 65.7489 45.881ZM65.7489 45.881C68 42.8786 72.7862 41.3678 75.2537 38.1358M75.2537 38.1358C75.4171 37.9218 75.5702 37.7003 75.7118 37.4704M75.2537 38.1358C74.5162 34.8412 74.3176 32.2559 78.1228 30.0202C79.4403 29.2462 82.5916 29.3389 83.7507 30.2678C88.271 33.8908 89.1713 37.6978 87.5026 42.8624C87.0584 44.2373 79.199 56.9694 77.164 51.1409C76.2979 48.6601 76.2469 45.9349 76.2469 43.3577C76.2469 41.3189 75.8663 39.4115 75.7118 37.4704M75.2537 38.1358C75.3301 38.4771 75.4123 38.8261 75.4965 39.1831M75.7118 37.4704C75.7377 37.4284 75.7632 37.3861 75.7883 37.3435C76.9543 35.3644 76.7215 29.2308 75.8717 33.558C75.6066 34.9078 75.6105 36.1964 75.7118 37.4704ZM100.259 36.6361C97.6147 39.1608 95.958 42.783 95.1732 46.0467C94.7239 47.9148 95.3252 53.8431 99.1752 52.1317C102.318 50.7348 105.872 45.3608 106.221 42.4027C106.757 37.8524 105.055 34.6834 102.51 30.9048C100.254 27.5544 97.997 24.8338 101.01 20.999C103.834 17.4039 109.895 18.3609 113.391 15.5508C121.81 8.78202 111.247 -0.334967 101.76 2.8854M119.019 35.3623C119.019 35.0113 119.012 34.7386 118.998 34.5338M118.998 34.5338C118.913 33.3298 118.545 34.4732 117.518 35.8576C115.812 38.1567 115.267 41.1205 115.267 43.7823C115.267 48.4614 115.078 56.1775 123.479 52.1669C127.863 50.0745 132.195 38.1269 129.816 34.0887C126.702 28.8029 120.962 30.5406 118.998 34.5338ZM118.998 34.5338C118.166 36.2245 118.011 38.3194 119.019 40.4568M140.03 36.6361C140.03 35.9148 140.19 35.2585 140.457 34.6426M140.457 34.6426C141.144 33.0574 142.539 31.7394 143.74 30.268C146.19 27.2649 147.628 24.2161 148.117 20.5744C148.574 17.171 148.893 12.1043 146.783 8.97042C146.03 7.85149 143.916 13.2598 143.781 13.7111C142.512 17.9652 141.919 22.3987 141.53 26.7656C141.296 29.3969 140.912 32.0224 140.457 34.6426ZM140.457 34.6426C139.695 39.0241 138.735 43.3908 137.945 47.7448C136.55 55.4393 138.926 46.961 139.446 44.1362C139.901 41.6671 142.825 31.8921 148.242 34.478C152.905 36.7039 152.414 42.4341 149.743 45.5514C146.615 49.2009 143.488 47.4155 140.03 49.3722M162.541 35.3624C162.541 34.7518 162.793 32.7023 161.374 32.9213C158.158 33.4175 158.196 41.5414 158.081 43.4994C157.946 45.7872 157.274 53.0566 162.541 51.141C167.036 49.5063 166.427 45.2164 164.375 42.3673C161.595 38.5062 158.336 42.4868 159.54 45.5513M177.549 36.636C177.549 36.1402 177.515 32.5641 176.798 32.8859C175.383 33.5218 175.054 37.8482 174.714 39.1832C174.255 40.986 174.345 43.0001 174.448 44.9506M174.448 44.9506C174.496 45.8577 174.547 46.7512 174.547 47.6032C174.547 49.9992 174.179 54.5031 173.839 49.3014C173.706 47.2711 173.913 45.8987 174.448 44.9506ZM174.448 44.9506C175.728 42.681 178.881 42.8415 183.719 42.2257C184.835 42.0836 185.883 41.7528 186.816 41.2743M186.816 41.2743C187.248 41.0526 187.656 40.7991 188.034 40.5179M186.816 41.2743C187.004 40.0063 187.307 38.7512 187.762 37.5912C187.82 37.4452 188.237 36.8072 188.753 36.1427M186.816 41.2743C186.628 42.5373 186.553 43.8132 186.553 45.0206C186.553 47.0702 185.558 50.7364 187.721 52.2377C190.132 53.912 192.315 52.7612 194.224 51.141C197.812 48.0957 202.801 41.9421 199.602 37.5558C198.385 35.8879 194.64 33.5227 192.181 33.5227C190.369 33.5227 189.336 34.6345 188.753 36.1427M188.034 40.5179C189.832 39.1834 190.972 37.2256 190.972 35.0794C190.972 33.6207 189.698 34.9263 188.753 36.1427M188.034 40.5179C188.078 39.0743 188.245 37.4578 188.753 36.1427M188.034 40.5179C187.995 41.8114 188.054 42.966 188.054 43.6409M209.815 9.25345C210.211 6.23451 213.301 1.83119 216.986 1.11649C222.434 0.0595799 223.301 6.46904 222.572 9.25345C221.385 13.7846 218.865 14.7877 215.068 17.3197C212.776 18.8477 208.315 23.2191 208.315 25.8104M207.564 7.9798C204.071 5.01568 200.144 2.11471 194.808 3.87594C191.315 5.02854 187.28 8.79852 188.471 12.119C189.847 15.956 192.165 19.7399 196.142 21.9895C199.182 23.7097 203.476 25.7589 205.313 28.3576" stroke="white" stroke-linecap="round"/>
</svg>
