<svg width="1072" height="464" viewBox="0 0 1072 464" fill="none" xmlns="http://www.w3.org/2000/svg">
<path d="M1071 21.8616C1060.96 16.64 1051.99 7.78569 1041.55 3.93972C1017.99 -4.74172 998.299 6.66847 987.822 26.8279C972.197 56.8923 963.078 88.7763 940.684 115.25C914.166 146.597 866.832 149.823 828.388 157.032C705.449 180.085 583.253 173.008 459.195 164.697C406.157 161.144 354.028 156.565 301.628 167.72C266.331 175.235 223.679 180.382 194.167 202.592C156.509 230.934 155.961 273.536 169.994 315.306C177.536 337.757 238.076 387.328 223.614 412.905C213.897 430.092 186.037 427.025 169.334 425.645C144.806 423.617 121.655 418.853 96.8143 420.678C73.8473 422.366 56.9941 428.834 37.0402 439.68C25.0449 446.2 13.7353 458.829 1 463" stroke="url(#paint0_linear_458_1982)" stroke-linecap="round"/>
<defs>
<linearGradient id="paint0_linear_458_1982" x1="743.875" y1="-67.2501" x2="-51.9675" y2="87.0164" gradientUnits="userSpaceOnUse">
<stop stop-color="white"/>
<stop offset="1" stop-color="white" stop-opacity="0"/>
</linearGradient>
</defs>
</svg>
