<svg width="207" height="88" viewBox="0 0 207 88" fill="none" xmlns="http://www.w3.org/2000/svg">
<path d="M6.48219 71H5.44219L12.4022 15H15.0422L31.8422 66.76L48.5622 15H51.2022L58.1622 71H51.5222L46.0022 26.2L31.5222 71H26.4822L11.8422 26.76L6.48219 71Z" fill="#157A1E"/>
<path d="M72.3964 71.16C69.5964 71.16 67.3164 70.36 65.5564 68.76C63.7964 67.16 62.9164 64.6933 62.9164 61.36C62.9164 58.0267 63.8231 55.44 65.6364 53.6C67.4764 51.76 69.7964 50.84 72.5964 50.84C75.4231 50.84 77.7164 51.64 79.4764 53.24C81.2364 54.84 82.1164 57.3067 82.1164 60.64C82.1164 63.9733 81.1964 66.56 79.3564 68.4C77.5431 70.24 75.2231 71.16 72.3964 71.16ZM72.6764 51.16C70.6497 51.16 68.9697 52.0667 67.6364 53.88C66.3031 55.6667 65.6364 58.1733 65.6364 61.4C65.6364 64.6 66.2497 66.9733 67.4764 68.52C68.7031 70.0667 70.3297 70.84 72.3564 70.84C74.3831 70.84 76.0631 69.9467 77.3964 68.16C78.7297 66.3467 79.3964 63.84 79.3964 60.64C79.3964 57.4133 78.7831 55.0267 77.5564 53.48C76.3297 51.9333 74.7031 51.16 72.6764 51.16ZM108.638 55.6C108.638 53.9733 108.425 52.8267 107.998 52.16C107.571 51.4933 106.758 51.16 105.558 51.16C103.958 51.16 102.531 51.8267 101.278 53.16C100.051 54.4933 99.438 55.6933 99.438 56.76V71H96.638V55.6C96.638 53.9733 96.4246 52.8267 95.998 52.16C95.5713 51.4933 94.6646 51.16 93.278 51.16C91.8913 51.16 90.5713 51.8 89.318 53.08C88.0913 54.36 87.4246 55.5467 87.318 56.64V71H84.518V51H87.318V55.52C87.7446 54.3733 88.5313 53.3067 89.678 52.32C90.8246 51.3333 92.1046 50.84 93.518 50.84C94.9313 50.84 96.0513 50.9733 96.878 51.24C97.7313 51.48 98.3313 51.8667 98.678 52.4C99.0246 52.9333 99.238 53.4 99.318 53.8C99.398 54.2 99.438 54.76 99.438 55.48C99.8646 54.3333 100.638 53.28 101.758 52.32C102.878 51.3333 104.078 50.84 105.358 50.84C106.638 50.84 107.665 50.9467 108.438 51.16C109.211 51.3733 109.785 51.6133 110.158 51.88C110.558 52.1467 110.851 52.5333 111.038 53.04C111.251 53.5467 111.371 53.96 111.398 54.28C111.425 54.6 111.438 55.0533 111.438 55.64V68.16C111.438 68.9333 111.585 69.5333 111.878 69.96C112.198 70.36 112.518 70.5733 112.838 70.6L113.278 70.68H114.518V71H112.078C110.985 71 110.145 70.76 109.558 70.28C108.998 69.8 108.705 69.32 108.678 68.84L108.638 68.16V55.6ZM118.449 61.24C118.449 64.5467 119.022 66.9733 120.169 68.52C121.342 70.0667 122.876 70.84 124.769 70.84C127.436 70.84 129.809 70.44 131.889 69.64L132.009 69.92C129.876 70.7467 127.462 71.16 124.769 71.16C122.102 71.16 119.929 70.36 118.249 68.76C116.569 67.16 115.729 64.6933 115.729 61.36C115.729 58.0267 116.609 55.44 118.369 53.6C120.129 51.76 122.369 50.84 125.089 50.84C127.276 50.84 129.116 51.4933 130.609 52.8C132.102 54.1067 132.849 56.04 132.849 58.6C132.849 58.7333 132.849 58.8667 132.849 59H118.569C118.489 59.72 118.449 60.4667 118.449 61.24ZM130.129 58.68C130.102 56.12 129.609 54.2267 128.649 53C127.689 51.7733 126.449 51.16 124.929 51.16C123.409 51.16 122.049 51.8267 120.849 53.16C119.676 54.4933 118.929 56.3333 118.609 58.68H130.129ZM151.079 71C149.986 71 149.146 70.76 148.559 70.28C147.999 69.8 147.706 69.32 147.679 68.84L147.639 68.16V55.6C147.639 53.4933 147.092 52.1467 145.999 51.56C145.439 51.2933 144.746 51.16 143.919 51.16C142.212 51.16 140.679 51.84 139.319 53.2C137.959 54.5333 137.279 55.7333 137.279 56.8V71H134.479V51H137.279V55.56C137.732 54.4133 138.572 53.3467 139.799 52.36C141.026 51.3467 142.372 50.84 143.839 50.84C145.306 50.84 146.492 50.9867 147.399 51.28C148.332 51.5467 149.012 51.9333 149.439 52.44C150.106 53.2667 150.439 54.3333 150.439 55.64V68.16C150.439 68.9333 150.586 69.5333 150.879 69.96C151.199 70.36 151.519 70.5733 151.839 70.6L152.279 70.68H153.519V71H151.079ZM155.334 51.32V51H156.174V47H158.974V51H165.094V51.32H158.974V65.88C158.974 67.6133 159.16 68.8667 159.534 69.64C159.934 70.4133 160.747 70.8 161.974 70.8C163.227 70.8 164.494 70.5467 165.774 70.04L165.894 70.36C164.56 70.8667 163.027 71.12 161.294 71.12C159.587 71.12 158.307 70.7733 157.454 70.08C156.6 69.36 156.174 67.9467 156.174 65.84V51.32H155.334ZM176.381 71.16C173.581 71.16 171.301 70.36 169.541 68.76C167.781 67.16 166.901 64.6933 166.901 61.36C166.901 58.0267 167.807 55.44 169.621 53.6C171.461 51.76 173.781 50.84 176.581 50.84C179.407 50.84 181.701 51.64 183.461 53.24C185.221 54.84 186.101 57.3067 186.101 60.64C186.101 63.9733 185.181 66.56 183.341 68.4C181.527 70.24 179.207 71.16 176.381 71.16ZM176.661 51.16C174.634 51.16 172.954 52.0667 171.621 53.88C170.287 55.6667 169.621 58.1733 169.621 61.4C169.621 64.6 170.234 66.9733 171.461 68.52C172.687 70.0667 174.314 70.84 176.341 70.84C178.367 70.84 180.047 69.9467 181.381 68.16C182.714 66.3467 183.381 63.84 183.381 60.64C183.381 57.4133 182.767 55.0267 181.541 53.48C180.314 51.9333 178.687 51.16 176.661 51.16Z" fill="white"/>
<circle cx="200" cy="31" r="7" fill="#8F1313"/>
</svg>
